<?xml version="1.0" standalone="no"?>
<!DOCTYPE svg PUBLIC "-//W3C//DTD SVG 20010904//EN"
 "http://www.w3.org/TR/2001/REC-SVG-20010904/DTD/svg10.dtd">
<svg version="1.0" xmlns="http://www.w3.org/2000/svg"
 width="245.000000pt" height="245.000000pt" viewBox="0 0 245.000000 245.000000"
 preserveAspectRatio="xMidYMid meet">
<metadata>
Created by potrace 1.11, written by Peter Selinger 2001-2013
</metadata>
<g transform="translate(0.000000,245.000000) scale(0.100000,-0.100000)"
fill="#000000" stroke="none">
<path d="M1061 2200 c-265 -56 -482 -231 -583 -471 -33 -79 -35 -85 -54 -184
-55 -288 66 -614 349 -938 44 -51 99 -109 121 -130 279 -263 301 -271 431
-159 190 163 340 324 443 478 181 269 251 519 208 745 -39 199 -103 318 -249
456 -93 88 -189 144 -312 183 -79 25 -277 36 -354 20z m257 -231 c276 -73 442
-285 442 -564 0 -179 -65 -332 -244 -575 -45 -61 -300 -320 -315 -320 -5 0
-63 51 -127 112 -203 195 -333 377 -397 557 -26 73 -31 104 -35 207 -4 112 -2
128 23 200 45 135 139 253 253 321 66 38 207 81 270 82 29 1 87 -8 130 -20z"/>
<path d="M1119 1741 c-102 -21 -221 -112 -266 -203 -54 -108 -62 -195 -28
-312 58 -199 284 -320 486 -260 137 41 233 145 275 301 15 56 16 75 6 131 -24
143 -127 276 -249 322 -62 24 -166 34 -224 21z m181 -223 l90 -72 0 -133 0
-133 -60 0 -59 0 -3 88 -3 87 -60 0 -60 0 -3 -87 -3 -88 -59 0 -60 0 0 134 0
134 83 70 c45 39 87 71 94 71 7 1 53 -31 103 -71z"/>
</g>
</svg>
